<svg width="102" height="112" viewBox="0 0 102 112" fill="none" xmlns="http://www.w3.org/2000/svg">
<path d="M93.0874 46.5458H59.2374V9.30917C59.2374 6.84022 58.3458 4.4724 56.7588 2.72659C55.1717 0.980785 53.0193 0 50.7749 0C48.5305 0 46.378 0.980785 44.791 2.72659C43.204 4.4724 42.3124 6.84022 42.3124 9.30917V46.5458H8.46237C6.21798 46.5458 4.06551 47.5266 2.47848 49.2724C0.891456 51.0182 -0.000126483 53.3861 -0.000126483 55.855C-0.000126483 58.3239 -0.0870267 58.2542 1.5 60C3.08703 61.7458 6.21798 62.4376 8.46237 62.4376L42.3124 62.4376V102.401C42.3124 104.87 43.204 107.238 44.791 108.983C46.378 110.729 48.5305 111.71 50.7749 111.71C53.0193 111.71 55.1717 110.729 56.7588 108.983C58.3458 107.238 59.2374 104.87 59.2374 102.401V62.4376L93.0874 62.4376C95.3318 62.4376 97.4842 61.7458 99.0713 60C100.658 58.2542 101.55 58.3239 101.55 55.855C101.55 53.3861 100.658 51.0182 99.0713 49.2724C97.4842 47.5266 95.3318 46.5458 93.0874 46.5458Z" fill="#8E8E8E"/>
</svg>
