<svg width="102" height="113" viewBox="0 0 102 113" fill="none" xmlns="http://www.w3.org/2000/svg">
<path fill-rule="evenodd" clip-rule="evenodd" d="M101.552 51.4741C101.552 79.5169 78.8186 102.25 50.7759 102.25C43.3921 102.25 36.3764 100.674 30.0469 97.8398L5.66437 112.063C5.43924 112.194 5.16526 111.996 5.21987 111.741L11.2924 83.4024C4.23035 74.6802 0 63.5712 0 51.4741C0 23.4314 22.7331 0.698242 50.7759 0.698242C78.8186 0.698242 101.552 23.4314 101.552 51.4741ZM29.7039 57.5674C33.4896 57.5674 36.5586 54.4984 36.5586 50.7126C36.5586 46.9269 33.4896 43.8579 29.7039 43.8579C25.9181 43.8579 22.8491 46.9269 22.8491 50.7126C22.8491 54.4984 25.9181 57.5674 29.7039 57.5674ZM57.9475 50.7126C57.9475 54.4984 54.8785 57.5674 51.0928 57.5674C47.307 57.5674 44.238 54.4984 44.238 50.7126C44.238 46.9269 47.307 43.8579 51.0928 43.8579C54.8785 43.8579 57.9475 46.9269 57.9475 50.7126ZM73.028 57.5674C76.8137 57.5674 79.8827 54.4984 79.8827 50.7126C79.8827 46.9269 76.8137 43.8579 73.028 43.8579C69.2422 43.8579 66.1732 46.9269 66.1732 50.7126C66.1732 54.4984 69.2422 57.5674 73.028 57.5674Z" fill="#8E8E8E"/>
</svg>
