<svg width="143" height="158" viewBox="0 0 143 158" fill="none" xmlns="http://www.w3.org/2000/svg">
<path fill-rule="evenodd" clip-rule="evenodd" d="M101.552 96.4741C101.552 124.517 78.8186 147.25 50.7759 147.25C43.3921 147.25 36.3764 145.674 30.0469 142.84L5.66437 157.063C5.43924 157.194 5.16526 156.996 5.21987 156.741L11.2924 128.402C4.23035 119.68 0 108.571 0 96.4741C0 68.4314 22.7331 45.6982 50.7759 45.6982C78.8186 45.6982 101.552 68.4314 101.552 96.4741ZM29.7039 102.567C33.4896 102.567 36.5586 99.4984 36.5586 95.7126C36.5586 91.9269 33.4896 88.8579 29.7039 88.8579C25.9181 88.8579 22.8491 91.9269 22.8491 95.7126C22.8491 99.4984 25.9181 102.567 29.7039 102.567ZM57.9475 95.7126C57.9475 99.4984 54.8785 102.567 51.0928 102.567C47.307 102.567 44.238 99.4984 44.238 95.7126C44.238 91.9269 47.307 88.8579 51.0928 88.8579C54.8785 88.8579 57.9475 91.9269 57.9475 95.7126ZM73.028 102.567C76.8137 102.567 79.8827 99.4984 79.8827 95.7126C79.8827 91.9269 76.8137 88.8579 73.028 88.8579C69.2422 88.8579 66.1732 91.9269 66.1732 95.7126C66.1732 99.4984 69.2422 102.567 73.028 102.567Z" fill="#8E8E8E"/>
<rect x="50.7759" width="91.3965" height="86.3191" rx="40" fill="#D32D2F"/>
<path d="M88.1171 60.9321H93.1779L110.368 26.7656V22.2939H84.7969V26.5782H105.602V26.6853L88.1171 60.9321Z" fill="white"/>
</svg>
