<svg width="105" height="105" viewBox="0 0 105 105" fill="none" xmlns="http://www.w3.org/2000/svg">
<path fill-rule="evenodd" clip-rule="evenodd" d="M76.6036 46.0172C76.6036 62.9715 62.8595 76.7156 45.9053 76.7156C28.9511 76.7156 15.207 62.9715 15.207 46.0172C15.207 29.063 28.9511 15.3188 45.9053 15.3188C62.8595 15.3188 76.6036 29.063 76.6036 46.0172ZM72.48 83.1985C64.9921 88.5599 55.8172 91.7156 45.9053 91.7156C20.6669 91.7156 0.207031 71.2557 0.207031 46.0172C0.207031 20.7787 20.6669 0.318848 45.9053 0.318848C71.1438 0.318848 91.6036 20.7787 91.6036 46.0172C91.6036 55.9291 88.448 65.1039 83.0866 72.5918L101.985 91.4897C104.913 94.4186 104.913 99.1673 101.985 102.096C99.0556 105.025 94.3069 105.025 91.3779 102.096L72.48 83.1985Z" fill="#8E8E8E"/>
</svg>
