<svg width="103" height="112" viewBox="0 0 103 112" fill="none" xmlns="http://www.w3.org/2000/svg">
<path d="M1.78467 111.948H35.3278C35.8801 111.948 36.3278 111.501 36.3278 110.948V81.2499C36.3278 72.9656 43.0435 66.2499 51.3278 66.2499H51.7933C60.0776 66.2499 66.7933 72.9656 66.7933 81.2499V110.948C66.7933 111.501 67.241 111.948 67.7933 111.948H101.336C101.889 111.948 102.336 111.501 102.336 110.948V46.3849C102.336 46.1014 102.216 45.8313 102.005 45.6416L52.2295 0.84328C51.8492 0.501005 51.2719 0.501006 50.8916 0.843281L1.1157 45.6416C0.904989 45.8313 0.784668 46.1014 0.784668 46.3849V110.948C0.784668 111.501 1.23238 111.948 1.78467 111.948Z" fill="black"/>
</svg>
